<svg width="36" height="36" viewBox="0 0 36 36" fill="none" xmlns="http://www.w3.org/2000/svg">
<rect width="36" height="36" fill="#E9ECF2"/>
<path d="M16.5435 11.1947C16.944 10.9779 17.4429 11.1451 17.6351 11.5609L18.6563 13.7721L23.1354 11.2267C23.542 10.9956 24.0575 11.1677 24.247 11.5983L25.187 13.7362C25.3528 14.113 25.2074 14.5552 24.8515 14.7574L22.5664 16.0559L26.7734 17.338C28.0634 17.7309 28.3091 19.4682 27.1792 20.2097L20.2294 24.7703C19.8361 25.0284 19.3079 24.8866 19.0938 24.465L17.8276 21.9712L13.3972 24.7399C13.0095 24.9821 12.5002 24.8446 12.284 24.4393L11.1824 22.3749C10.9839 22.0025 11.1069 21.5386 11.463 21.3161L14.1022 19.6663L9.24665 18.2585C7.88074 17.8624 7.68326 15.9897 8.93588 15.3118L16.5435 11.1947Z" fill="#CACED5"/>
</svg>
