<svg width="20" height="20" viewBox="0 0 20 20" fill="none" xmlns="http://www.w3.org/2000/svg">
<path d="M20 10C20 4.47714 15.5229 0 10 0C4.47714 0 0 4.47714 0 10C0 15.5229 4.47714 20 10 20C11.6914 20 13.2871 19.5793 14.6857 18.8364L18.6343 19.9593C18.8178 20.0113 19.0119 20.0134 19.1965 19.9653C19.381 19.9173 19.5495 19.8208 19.6843 19.6859C19.8191 19.551 19.9155 19.3825 19.9635 19.1979C20.0114 19.0133 20.0093 18.8192 19.9571 18.6357L18.8343 14.6879C19.6018 13.2446 20.0021 11.6346 20 10ZM14.2857 7.85714C14.2857 8.04658 14.2105 8.22826 14.0765 8.36222C13.9425 8.49617 13.7609 8.57143 13.5714 8.57143H6.42857C6.23913 8.57143 6.05745 8.49617 5.92349 8.36222C5.78954 8.22826 5.71428 8.04658 5.71428 7.85714C5.71428 7.6677 5.78954 7.48602 5.92349 7.35207C6.05745 7.21811 6.23913 7.14286 6.42857 7.14286H13.5714C13.7609 7.14286 13.9425 7.21811 14.0765 7.35207C14.2105 7.48602 14.2857 7.6677 14.2857 7.85714ZM13.5714 11.4286C13.7609 11.4286 13.9425 11.5038 14.0765 11.6378C14.2105 11.7717 14.2857 11.9534 14.2857 12.1429C14.2857 12.3323 14.2105 12.514 14.0765 12.6479C13.9425 12.7819 13.7609 12.8571 13.5714 12.8571H9.28571C9.09627 12.8571 8.91459 12.7819 8.78063 12.6479C8.64668 12.514 8.57142 12.3323 8.57142 12.1429C8.57142 11.9534 8.64668 11.7717 8.78063 11.6378C8.91459 11.5038 9.09627 11.4286 9.28571 11.4286H13.5714Z" fill="#4A5565"/>
</svg>
