<svg width="20" height="20" viewBox="0 0 20 20" fill="none" xmlns="http://www.w3.org/2000/svg">
<path d="M5.60698 1.93069L6.99055 1.51355C7.44718 1.37609 7.93821 1.40944 8.37206 1.60738C8.8059 1.80531 9.15293 2.1543 9.34841 2.58926L10.3184 4.7464C10.4868 5.12063 10.5337 5.53819 10.4526 5.94046C10.3715 6.34272 10.1665 6.70949 9.86627 6.98926L8.38984 8.36498C8.19198 8.55283 8.34198 9.28498 9.06484 10.5378C9.78841 11.7914 10.3477 12.2871 10.6056 12.21L12.5398 11.6185C12.9319 11.4986 13.3517 11.5044 13.7403 11.635C14.129 11.7657 14.467 12.0147 14.707 12.3471L16.0856 14.2578C16.364 14.6437 16.4929 15.1175 16.4484 15.5912C16.4039 16.0649 16.1889 16.5064 15.8434 16.8335L14.7777 17.8428C14.4337 18.1686 14.0094 18.3973 13.5481 18.5056C13.0868 18.6139 12.6051 18.5979 12.152 18.4593C9.91912 17.7757 7.85126 15.7471 5.92055 12.4021C3.98555 9.05212 3.25484 6.2264 3.76412 3.91783C3.86684 3.45266 4.09176 3.02329 4.41569 2.67399C4.73962 2.3247 5.15085 2.06811 5.60698 1.93069Z" fill="#4A5565"/>
</svg>
